#!OML:ASF E:\Mandelcareful walks\Project 1\Capture day 1\Session 1\Subject1.ASF
:FULLY-SPECIFIED
:DEGREES
245
root -15.3165 14.5011 3.1762 -179.755 60.1827 166.27
lowerback 21.4054 6.1556 2.77101
upperback 7.22831 9.20403 -5.18419
thorax -2.58777 5.06031 -9.25443
lowerneck -5.70423 24.1093 14.6828
upperneck 9.96159 36.9883 -25.0581
head 11.8306 16.8852 -4.07402
rclavicle -4.77083e-015 9.06458e-014
rhumerus -44.7968 6.22733 -81.7504
rradius 58.8678
rwrist -20.3351
rhand -20.3387 -25.6145
rfingers 7.12502
rthumb 6.01285 -55.5092
lclavicle -4.77083e-015 9.06458e-014
lhumerus 1.72293 -53.2958 70.9337
lradius 69.8909
lwrist 4.815
lhand -20.5227 -13.7961
lfingers 7.12502
lthumb 5.83519 16.1036
rfemur -43.9438 -35.7174 13.4123
rtibia 74.3313
rfoot -33.7294 -17.4812
rtoes -12.9415
lfemur -56.8896 5.38244 -13.4985
ltibia 49.763
lfoot -1.95536 2.56517
ltoes -20.5833
246
root -15.2265 14.4371 3.16233 -178.651 58.0288 167.399
lowerback 21.3316 6.16103 2.92329
upperback 7.06665 9.24727 -5.33579
thorax -2.66704 5.08474 -9.52003
lowerneck -6.47373 24.6243 11.785
upperneck 9.69354 37.196 -23.0763
head 10.8261 16.9948 -3.23957
rclavicle 6.99722e-014 -1.98785e-014
rhumerus -44.7565 6.73146 -82.651
rradius 59.1038
rwrist -20.0677
rhand -19.7645 -25.3551
rfingers 7.12502
rthumb 6.5672 -55.2333
lclavicle 6.99722e-014 -1.98785e-014
lhumerus 2.76162 -54.0901 70.3007
lradius 70.0805
lwrist 5.53198
lhand -20.966 -13.0839
lfingers 7.12502
lthumb 5.40714 16.8271
rfemur -43.3712 -36.9133 13.3642
rtibia 75.301
rfoot -33.8878 -18.0893
rtoes -13.3104
lfemur -57.7968 4.7583 -13.6392
ltibia 50.6417
lfoot -2.07272 0.968777
ltoes -20.1422
247
root -15.1418 14.3746 3.1461 -177.623 56.0625 168.576
lowerback 21.4655 6.20787 3.09085
upperback 6.95625 9.35448 -5.35508
thorax -2.80516 5.13626 -9.68899
lowerneck -6.34218 24.3655 14.2523
upperneck 10.1055 37.2503 -24.3781
head 11.7759 16.944 -3.70418
rclavicle -3.45885e-014 -4.6118e-014
rhumerus -44.4688 7.3477 -83.1956
rradius 59.4658
rwrist -19.3316
rhand -19.0912 -24.8243
rfingers 7.12502
rthumb 7.21714 -54.6812
lclavicle -3.45885e-014 -4.6118e-014
lhumerus 3.96333 -54.7276 69.7653
lradius 70.1194
lwrist 6.15862
lhand -21.3183 -12.4609
lfingers 7.12502
lthumb 5.06703 17.4585
rfemur -42.627 -37.9841 13.3421
rtibia 76.2143
rfoot -34.1604 -18.2397
rtoes -14.0436
lfemur -58.62 4.26115 -13.6569
ltibia 51.5141
lfoot -2.33807 -0.394778
ltoes -20.4958
248
root -15.0692 14.3263 3.15881 -175.429 54.4618 171.091
lowerback 22.0176 6.35617 3.74779
upperback 6.61716 9.66122 -5.11614
thorax -3.33412 5.23902 -9.97814
lowerneck -6.29868 24.2799 14.2804
upperneck 9.73031 37.1708 -24.7001
head 11.7014 16.9294 -3.82992
rclavicle -2.38542e-014 5.32743e-014
rhumerus -44.11 8.2028 -83.5194
rradius 59.9812
rwrist -18.4342
rhand -12.4594 -24.6776
rfingers 7.12502
rthumb 13.6143 -54.2124
lclavicle -2.38542e-014 5.32743e-014
lhumerus 4.71493 -55.1961 69.6528
lradius 70.2292
lwrist 6.38242
lhand -21.2848 -12.0589
lfingers 7.12502
lthumb 5.09933 17.8598
rfemur -42.4174 -38.2064 14.7675
rtibia 77.0848
rfoot -34.3781 -19.0884
rtoes -16.4517
lfemur -59.5854 4.12905 -12.4959
ltibia 52.3233
lfoot -2.42896 -1.64225
ltoes -20.7002
249
root -14.9611 14.3054 3.10337 -176.359 52.6962 170.35
lowerback 21.8805 6.50178 2.99474
upperback 6.76716 9.747 -5.32722
thorax -3.17048 5.31665 -9.77109
lowerneck -6.03385 24.0338 14.9879
upperneck 9.25385 36.9281 -25.4705
head 11.7708 16.8581 -4.19809
rclavicle -1.20861e-013 6.75868e-014
rhumerus -43.5509 9.34244 -83.8107
rradius 60.7477
rwrist -18.074
rhand -11.4595 -23.7032
rfingers 7.12502
rthumb 14.5778 -53.1709
lclavicle -1.20861e-013 6.75868e-014
lhumerus 5.23372 -55.7444 69.4778
lradius 70.6072
lwrist 6.58934
lhand -21.2182 -11.7899
lfingers 7.12502
lthumb 5.16363 18.1272
rfemur -40.7427 -39.8503 12.8833
rtibia 77.7766
rfoot -33.8321 -18.7084
rtoes -19.4074
lfemur -59.545 3.40126 -13.5813
ltibia 53.0948
lfoot -2.99926 -2.74
ltoes -20.0811
